<svg width="232" height="295" viewBox="0 0 232 295" fill="none" xmlns="http://www.w3.org/2000/svg">
<path fill-rule="evenodd" clip-rule="evenodd" d="M20 15H203C205.761 15 208 17.2386 208 20V254C208 256.761 205.761 259 203 259H20C17.2386 259 15 256.761 15 254V20C15 17.2386 17.2386 15 20 15ZM0 20C0 8.95428 8.95432 0 20 0H203C214.046 0 223 8.95428 223 20V35H227C229.761 35 232 37.2386 232 40V86C232 88.7614 229.761 91 227 91H223V254C223 265.046 214.046 274 203 274H182.124L175.463 291.756C174.732 293.707 172.866 295 170.782 295H44.6723L39.3159 274H20C8.95432 274 0 265.046 0 254V20ZM108.963 85.5H101.463V93V179H76.0568V136.5V129H68.5568H29C24.8578 129 21.5 132.358 21.5 136.5C21.5 140.642 24.8578 144 29 144H61.0568V186.5V194H68.5568H108.963H116.463V186.5V100.5H142.709V136.5V144H150.209H194.5C198.642 144 202 140.642 202 136.5C202 132.358 198.642 129 194.5 129H157.709V93V85.5H150.209H108.963Z" fill="white"/>
</svg>
