<svg width="166" height="209" viewBox="0 0 166 209" fill="none" xmlns="http://www.w3.org/2000/svg">
<path d="M44.9622 120.259L78.1554 157.251L138.168 99" stroke="#6AD943" stroke-width="15" stroke-linecap="round"/>
<mask id="path-3-inside-1" fill="white">
<path fill-rule="evenodd" clip-rule="evenodd" d="M80.4551 38.2528V28C80.4551 26.3431 81.7982 25 83.4551 25H86.4551C88.1119 25 89.4551 26.3431 89.4551 28V38.5267C96.9138 36.7279 102.455 30.0111 102.455 22C102.455 12.6112 94.8439 5 85.4551 5C76.0662 5 68.4551 12.6112 68.4551 22C68.4551 29.6487 73.5064 36.1177 80.4551 38.2528ZM80.4551 43.4293C70.7137 41.1654 63.4551 32.4304 63.4551 22C63.4551 9.84974 73.3048 0 85.4551 0C97.6053 0 107.455 9.84974 107.455 22C107.455 32.7843 99.6956 41.7562 89.4551 43.6372V49C89.4551 49.0329 89.4545 49.0656 89.4535 49.0982C131.779 51.1815 165.455 86.158 165.455 129C165.455 173.183 129.638 209 85.4551 209C41.2723 209 5.45508 173.183 5.45508 129C5.45508 109.927 12.1295 92.4133 23.2701 78.6665C23.0608 78.5538 22.8641 78.409 22.6873 78.2322L19.2228 74.7678C18.2465 73.7915 18.2465 72.2085 19.2228 71.2322C20.1992 70.2559 21.7821 70.2559 22.7584 71.2322L26.2228 74.6967C26.3089 74.7827 26.3873 74.8735 26.4582 74.9681C40.0328 60.1542 59.1136 50.4687 80.4589 49.1535C80.4564 49.1026 80.4551 49.0515 80.4551 49V43.4293ZM160.455 129C160.455 170.421 126.876 204 85.4551 204C44.0337 204 10.4551 170.421 10.4551 129C10.4551 87.5786 44.0337 54 85.4551 54C126.876 54 160.455 87.5786 160.455 129Z"/>
</mask>
<path fill-rule="evenodd" clip-rule="evenodd" d="M80.4551 38.2528V28C80.4551 26.3431 81.7982 25 83.4551 25H86.4551C88.1119 25 89.4551 26.3431 89.4551 28V38.5267C96.9138 36.7279 102.455 30.0111 102.455 22C102.455 12.6112 94.8439 5 85.4551 5C76.0662 5 68.4551 12.6112 68.4551 22C68.4551 29.6487 73.5064 36.1177 80.4551 38.2528ZM80.4551 43.4293C70.7137 41.1654 63.4551 32.4304 63.4551 22C63.4551 9.84974 73.3048 0 85.4551 0C97.6053 0 107.455 9.84974 107.455 22C107.455 32.7843 99.6956 41.7562 89.4551 43.6372V49C89.4551 49.0329 89.4545 49.0656 89.4535 49.0982C131.779 51.1815 165.455 86.158 165.455 129C165.455 173.183 129.638 209 85.4551 209C41.2723 209 5.45508 173.183 5.45508 129C5.45508 109.927 12.1295 92.4133 23.2701 78.6665C23.0608 78.5538 22.8641 78.409 22.6873 78.2322L19.2228 74.7678C18.2465 73.7915 18.2465 72.2085 19.2228 71.2322C20.1992 70.2559 21.7821 70.2559 22.7584 71.2322L26.2228 74.6967C26.3089 74.7827 26.3873 74.8735 26.4582 74.9681C40.0328 60.1542 59.1136 50.4687 80.4589 49.1535C80.4564 49.1026 80.4551 49.0515 80.4551 49V43.4293ZM160.455 129C160.455 170.421 126.876 204 85.4551 204C44.0337 204 10.4551 170.421 10.4551 129C10.4551 87.5786 44.0337 54 85.4551 54C126.876 54 160.455 87.5786 160.455 129Z" fill="#C4C4C4"/>
<path d="M80.4551 38.2528L78.9865 43.0323C80.5029 43.4982 82.1505 43.2169 83.4264 42.2742C84.7023 41.3315 85.4551 39.8392 85.4551 38.2528H80.4551ZM89.4551 38.5267H84.4551C84.4551 40.0591 85.1578 41.5069 86.3616 42.4549C87.5655 43.403 89.1377 43.7466 90.6273 43.3874L89.4551 38.5267ZM80.4551 43.4293H85.4551C85.4551 41.104 83.852 39.0855 81.5869 38.5591L80.4551 43.4293ZM89.4551 43.6372L88.5518 38.7195C86.1784 39.1555 84.4551 41.2242 84.4551 43.6372H89.4551ZM89.4535 49.0982L84.4561 48.938C84.3687 51.6646 86.483 53.958 89.2077 54.0921L89.4535 49.0982ZM23.2701 78.6665L27.1547 81.8146C28.0921 80.6579 28.4652 79.1436 28.1726 77.6838C27.88 76.224 26.952 74.9705 25.6411 74.2645L23.2701 78.6665ZM22.6873 78.2322L26.2229 74.6967L26.2228 74.6967L22.6873 78.2322ZM19.2228 74.7678L15.6873 78.3033L15.6873 78.3033L19.2228 74.7678ZM22.7584 71.2322L26.2939 67.6967L26.2939 67.6967L22.7584 71.2322ZM26.2228 74.6967L29.7584 71.1612L29.7584 71.1612L26.2228 74.6967ZM26.4582 74.9681L22.4562 77.9654C23.3483 79.1566 24.7246 79.8884 26.211 79.962C27.6973 80.0356 29.1392 79.4433 30.1446 78.3461L26.4582 74.9681ZM80.4589 49.1535L80.7665 54.144C83.5009 53.9755 85.5906 51.6378 85.4526 48.9017L80.4589 49.1535ZM85.4551 38.2528V28H75.4551V38.2528H85.4551ZM85.4551 28C85.4551 29.1046 84.5597 30 83.4551 30V20C79.0368 20 75.4551 23.5817 75.4551 28H85.4551ZM83.4551 30H86.4551V20H83.4551V30ZM86.4551 30C85.3505 30 84.4551 29.1046 84.4551 28H94.4551C94.4551 23.5817 90.8734 20 86.4551 20V30ZM84.4551 28V38.5267H94.4551V28H84.4551ZM90.6273 43.3874C100.28 41.0595 107.455 32.3739 107.455 22H97.4551C97.4551 27.6483 93.5479 32.3963 88.2828 33.6661L90.6273 43.3874ZM107.455 22C107.455 9.84974 97.6053 0 85.4551 0V10C92.0825 10 97.4551 15.3726 97.4551 22H107.455ZM85.4551 0C73.3048 0 63.4551 9.84974 63.4551 22H73.4551C73.4551 15.3726 78.8277 10 85.4551 10V0ZM63.4551 22C63.4551 31.9059 69.9982 40.2704 78.9865 43.0323L81.9237 33.4733C77.0146 31.9649 73.4551 27.3916 73.4551 22H63.4551ZM58.4551 22C58.4551 34.8073 67.3674 45.521 79.3232 48.2995L81.5869 38.5591C74.0599 36.8098 68.4551 30.0534 68.4551 22H58.4551ZM85.4551 -5C70.5434 -5 58.4551 7.08831 58.4551 22H68.4551C68.4551 12.6112 76.0662 5 85.4551 5V-5ZM112.455 22C112.455 7.08831 100.367 -5 85.4551 -5V5C94.8439 5 102.455 12.6112 102.455 22H112.455ZM90.3584 48.555C102.929 46.2459 112.455 35.2406 112.455 22H102.455C102.455 30.3279 96.4618 37.2666 88.5518 38.7195L90.3584 48.555ZM84.4551 43.6372V49H94.4551V43.6372H84.4551ZM84.4551 49C84.4551 48.9787 84.4554 48.958 84.4561 48.938L94.4509 49.2584C94.4537 49.1732 94.4551 49.087 94.4551 49H84.4551ZM170.455 129C170.455 83.4789 134.674 46.318 89.6993 44.1042L89.2077 54.0921C128.883 56.0451 160.455 88.8371 160.455 129H170.455ZM85.4551 214C132.399 214 170.455 175.944 170.455 129H160.455C160.455 170.421 126.876 204 85.4551 204V214ZM0.455078 129C0.455078 175.944 38.5109 214 85.4551 214V204C44.0337 204 10.4551 170.421 10.4551 129H0.455078ZM19.3856 75.5185C7.54967 90.1232 0.455078 108.74 0.455078 129H10.4551C10.4551 111.115 16.7094 94.7034 27.1547 81.8146L19.3856 75.5185ZM19.1517 81.7677C19.6763 82.2923 20.2662 82.7277 20.8991 83.0686L25.6411 74.2645C25.8553 74.3798 26.0519 74.5258 26.2229 74.6967L19.1517 81.7677ZM15.6873 78.3033L19.1518 81.7678L26.2228 74.6967L22.7584 71.2322L15.6873 78.3033ZM15.6873 67.6967C12.7584 70.6256 12.7584 75.3744 15.6873 78.3033L22.7584 71.2322C23.7347 72.2085 23.7347 73.7915 22.7584 74.7678L15.6873 67.6967ZM26.2939 67.6967C23.365 64.7678 18.6162 64.7678 15.6873 67.6967L22.7584 74.7678C21.7821 75.7441 20.1992 75.7441 19.2228 74.7678L26.2939 67.6967ZM29.7584 71.1612L26.2939 67.6967L19.2228 74.7678L22.6873 78.2322L29.7584 71.1612ZM30.4602 71.9708C30.2473 71.6865 30.013 71.4158 29.7584 71.1612L22.6873 78.2322C22.6048 78.1497 22.5274 78.0605 22.4562 77.9654L30.4602 71.9708ZM80.1514 44.1629C57.4643 45.5609 37.1875 55.8583 22.7718 71.5901L30.1446 78.3461C42.8781 64.4501 60.7629 55.3766 80.7665 54.144L80.1514 44.1629ZM85.4526 48.9017C85.4543 48.9347 85.4551 48.9675 85.4551 49H75.4551C75.4551 49.1355 75.4585 49.2706 75.4653 49.4053L85.4526 48.9017ZM85.4551 49V43.4293H75.4551V49H85.4551ZM85.4551 209C129.638 209 165.455 173.183 165.455 129H155.455C155.455 167.66 124.115 199 85.4551 199V209ZM5.45508 129C5.45508 173.183 41.2723 209 85.4551 209V199C46.7951 199 15.4551 167.66 15.4551 129H5.45508ZM85.4551 49C41.2723 49 5.45508 84.8172 5.45508 129H15.4551C15.4551 90.3401 46.7951 59 85.4551 59V49ZM165.455 129C165.455 84.8172 129.638 49 85.4551 49V59C124.115 59 155.455 90.3401 155.455 129H165.455Z" fill="white" mask="url(#path-3-inside-1)"/>
<rect x="6" y="76.689" width="26.4302" height="7.07527" rx="3.53763" transform="rotate(-45 6 76.689)" fill="white"/>
</svg>
