<svg width="232" height="307" viewBox="0 0 232 307" fill="none" xmlns="http://www.w3.org/2000/svg">
<path fill-rule="evenodd" clip-rule="evenodd" d="M35.5045 16L43.0795 2.54683C43.9654 0.97349 45.6307 0 47.4363 0H181.811L187.937 16H203C214.046 16 223 24.9543 223 36V51H227C229.761 51 232 53.2386 232 56V102C232 104.761 229.761 107 227 107H223V270C223 281.046 214.046 290 203 290H188.059L179.921 304.453C179.035 306.027 177.369 307 175.564 307H41.1892L34.6802 290H20C8.9543 290 0 281.046 0 270V36C0 24.9543 8.9543 16 20 16H35.5045ZM203 26H20C14.4771 26 10 30.4772 10 36V270C10 275.523 14.4772 280 20 280H203C208.523 280 213 275.523 213 270V102V56V36C213 30.4772 208.523 26 203 26ZM103.963 104H108.963H150.209H155.209V109V147.5H194.5C197.261 147.5 199.5 149.739 199.5 152.5C199.5 155.261 197.261 157.5 194.5 157.5H150.209H145.209V152.5V114H113.963V202.5V207.5H108.963H68.5568H63.5568V202.5V157.5H29C26.2386 157.5 24 155.261 24 152.5C24 149.739 26.2386 147.5 29 147.5H68.5568H73.5568V152.5V197.5H103.963V109V104Z" fill="#7794CC"/>
</svg>
